<svg width="332" height="32" viewBox="0 0 332 32" fill="none" xmlns="http://www.w3.org/2000/svg">
<rect width="32" height="32" fill="white" fill-opacity="0.01"/>
<path fill-rule="evenodd" clip-rule="evenodd" d="M6.66663 20H25.3333V22.6667H6.66663V20ZM6.66663 9.33334H25.3333V12H6.66663V9.33334ZM6.66663 14.6667H25.3333V17.3333H6.66663V14.6667Z" fill="#091E42"/>
<path d="M147.644 19.7341C148.127 19.4874 148.571 19.0419 148.978 18.3952L151.419 19.593C150.91 20.5952 150.16 21.3519 149.169 21.8619C148.178 22.3719 147.106 22.6263 145.954 22.6263C145.107 22.6263 144.306 22.4863 143.553 22.2052C142.799 21.9252 142.138 21.5163 141.57 20.9819C141.002 20.4474 140.553 19.8008 140.223 19.0441C139.893 18.2874 139.728 17.4252 139.728 16.4563C139.728 15.6063 139.881 14.8074 140.186 14.0596C140.49 13.3119 140.914 12.6619 141.456 12.1096C141.999 11.5574 142.655 11.1241 143.426 10.8096C144.196 10.4952 145.039 10.3385 145.954 10.3385C146.886 10.3385 147.729 10.4996 148.483 10.823C149.238 11.1463 149.881 11.5919 150.415 12.1619C150.949 12.7319 151.355 13.4152 151.635 14.2141C151.914 15.013 152.054 15.8963 152.054 16.8652V17.3241H143.311C143.379 18.1396 143.68 18.8074 144.214 19.3252C144.748 19.8441 145.387 20.103 146.133 20.103C146.657 20.1041 147.161 19.9808 147.644 19.7341ZM144.2 13.5519C143.742 13.9596 143.454 14.5208 143.336 15.2341H148.444C148.309 14.4185 148.004 13.8319 147.529 13.4752C147.055 13.1185 146.522 12.9396 145.929 12.9396C145.233 12.9408 144.657 13.1441 144.2 13.5519Z" fill="#0052CC"/>
<path d="M153.12 13.8839C153.408 13.1195 153.794 12.4728 154.277 11.9461C154.76 11.4195 155.327 11.0195 155.979 10.7483C156.632 10.4761 157.331 10.3406 158.076 10.3406C158.789 10.3406 159.449 10.4806 160.059 10.7617C160.669 11.0417 161.194 11.4206 161.634 11.8961L161.685 11.8706V4.06946H165.243V22.3483H161.913L161.811 21.0739L161.76 21.0483C161.371 21.4728 160.862 21.8428 160.235 22.1572C159.608 22.4717 158.914 22.6283 158.152 22.6283C157.423 22.6283 156.728 22.4961 156.068 22.2328C155.407 21.9695 154.827 21.5739 154.327 21.0472C153.827 20.5206 153.428 19.8783 153.133 19.1228C152.836 18.3661 152.687 17.4872 152.687 16.4839C152.688 15.515 152.832 14.6483 153.12 13.8839ZM157.047 18.9317C157.547 19.5439 158.204 19.8495 159.017 19.8495C159.83 19.8495 160.478 19.5395 160.961 18.9195C161.444 18.2995 161.685 17.4795 161.685 16.4595C161.685 15.4395 161.435 14.6283 160.935 14.025C160.436 13.4217 159.795 13.1206 159.017 13.1206C158.153 13.1206 157.484 13.4306 157.008 14.0506C156.534 14.6706 156.297 15.4739 156.297 16.4595C156.297 17.495 156.548 18.3195 157.047 18.9317Z" fill="#0052CC"/>
<path d="M173.516 24.9863C173.88 24.8074 174.172 24.5619 174.393 24.2474C174.613 23.933 174.769 23.5674 174.863 23.1508C174.956 22.7341 175.002 22.2885 175.002 21.8119V21.2252C174.985 21.2252 174.972 21.2208 174.964 21.2119C174.957 21.203 174.943 21.1996 174.927 21.1996C174.555 21.573 174.072 21.9052 173.478 22.1941C172.885 22.483 172.224 22.6274 171.495 22.6274C170.75 22.6274 170.046 22.4952 169.386 22.2319C168.725 21.9685 168.149 21.5819 167.658 21.0719C167.166 20.5619 166.773 19.9252 166.476 19.1596C166.179 18.3952 166.031 17.5108 166.031 16.5085C166.031 15.5396 166.17 14.6774 166.451 13.9208C166.73 13.1641 167.112 12.5185 167.594 11.983C168.076 11.4474 168.636 11.0396 169.271 10.7596C169.907 10.4796 170.58 10.3385 171.291 10.3385C172.121 10.3385 172.845 10.4919 173.465 10.7974C174.083 11.103 174.63 11.5108 175.104 12.0208H175.155L175.231 10.6185H178.561V20.7652C178.561 21.4785 178.544 22.0396 178.51 22.4474C178.476 22.8552 178.4 23.2719 178.282 23.6963C177.926 25.0052 177.24 26.0374 176.224 26.7941C175.207 27.5508 173.928 27.9285 172.386 27.9285C171.675 27.9285 171.03 27.8608 170.454 27.7241C169.878 27.5885 169.357 27.4141 168.891 27.2019C168.425 26.9896 168.014 26.7474 167.658 26.4752C167.303 26.203 166.997 25.9396 166.743 25.6852L168.471 23.5696C168.98 24.113 169.572 24.5296 170.25 24.8185C170.928 25.1074 171.563 25.2519 172.156 25.2519C172.698 25.2541 173.151 25.1641 173.516 24.9863ZM170.364 18.9441C170.864 19.5474 171.521 19.8485 172.334 19.8485C173.147 19.8485 173.795 19.5385 174.278 18.9185C174.761 18.2985 175.002 17.4785 175.002 16.4585C175.002 15.4385 174.752 14.6274 174.252 14.0241C173.753 13.4208 173.112 13.1196 172.334 13.1196C171.47 13.1196 170.801 13.4341 170.325 14.063C169.851 14.6919 169.613 15.4996 169.613 16.4852C169.614 17.5208 169.863 18.3408 170.364 18.9441Z" fill="#0052CC"/>
<path d="M187.163 19.7341C187.646 19.4874 188.09 19.0419 188.498 18.3952L190.938 19.593C190.429 20.5952 189.68 21.3519 188.688 21.8619C187.697 22.3719 186.626 22.6263 185.474 22.6263C184.626 22.6263 183.825 22.4863 183.072 22.2052C182.318 21.9252 181.658 21.5163 181.089 20.9819C180.522 20.4463 180.073 19.8008 179.742 19.0441C179.412 18.2874 179.247 17.4252 179.247 16.4563C179.247 15.6063 179.4 14.8074 179.705 14.0596C180.009 13.3119 180.434 12.6619 180.975 12.1096C181.518 11.5574 182.174 11.1241 182.945 10.8096C183.716 10.4952 184.559 10.3385 185.474 10.3385C186.405 10.3385 187.248 10.4996 188.003 10.823C188.757 11.1463 189.4 11.5919 189.934 12.1619C190.468 12.7319 190.875 13.4152 191.154 14.2141C191.433 15.013 191.574 15.8963 191.574 16.8652V17.3241H182.831C182.898 18.1396 183.2 18.8074 183.733 19.3252C184.267 19.8441 184.907 20.103 185.652 20.103C186.176 20.1041 186.68 19.9808 187.163 19.7341ZM183.72 13.5519C183.263 13.9596 182.975 14.5208 182.856 15.2341H187.965C187.83 14.4185 187.524 13.8319 187.05 13.4752C186.576 13.1185 186.042 12.9396 185.449 12.9396C184.754 12.9408 184.177 13.1441 183.72 13.5519Z" fill="#0052CC"/>
<path d="M76.7909 20.2603C76.5782 20.7136 76.2581 21.1158 75.8316 21.4658C75.4051 21.8158 74.8768 22.0992 74.2454 22.3125C73.614 22.5258 72.8896 22.6336 72.071 22.6336C71.4739 22.6336 70.9157 22.5736 70.3951 22.4536C69.8744 22.3336 69.397 22.1803 68.9628 21.9914C68.5275 21.8036 68.1442 21.5936 67.8119 21.3625C67.4796 21.1314 67.2027 20.8958 66.98 20.6569L68.6936 18.5269C69.1711 19.0225 69.7039 19.4125 70.292 19.6947C70.8802 19.9769 71.4728 20.1181 72.0699 20.1181C72.5639 20.1181 72.9439 20.0158 73.2086 19.8103C73.4733 19.6047 73.6051 19.3658 73.6051 19.0914C73.6051 18.7325 73.4002 18.4581 72.9915 18.2703C72.8043 18.1681 72.5949 18.0825 72.3645 18.0136C72.1341 17.9447 71.8993 17.8681 71.6611 17.7825L70.868 17.5514C70.5103 17.4492 70.2067 17.3458 69.9597 17.2436C69.7127 17.1414 69.4779 17.0303 69.2563 16.9103C68.6083 16.5681 68.1398 16.1792 67.8496 15.7425C67.5594 15.3058 67.4143 14.7292 67.4143 14.0103C67.4143 13.5481 67.5206 13.0947 67.7344 12.6503C67.9471 12.2058 68.2583 11.8036 68.6682 11.4447C69.078 11.0858 69.5809 10.7992 70.1768 10.5847C70.7739 10.3714 71.464 10.2636 72.2493 10.2636C72.863 10.2636 73.4091 10.3236 73.8865 10.4436C74.3639 10.5636 74.7859 10.7092 75.1526 10.8803C75.5192 11.0514 75.8394 11.2436 76.1119 11.4581C76.3843 11.6714 76.6236 11.8647 76.8285 12.0358L75.1149 14.0625C74.7738 13.7203 74.3395 13.4214 73.8101 13.1647C73.2817 12.9081 72.7445 12.7803 72.1984 12.7803C71.7896 12.7803 71.4485 12.8703 71.1749 13.0492C70.9024 13.2292 70.765 13.4636 70.765 13.7547C70.765 13.9769 70.8547 14.1614 71.0331 14.3069C71.2125 14.4525 71.4208 14.5681 71.66 14.6536C71.8816 14.7392 72.1075 14.8203 72.3379 14.8969C72.5683 14.9736 72.8287 15.0547 73.1178 15.1403L73.9363 15.3969C74.3794 15.5336 74.8236 15.7181 75.2667 15.9492C75.7098 16.1803 76.0941 16.4747 76.4176 16.8347C76.8784 17.3481 77.1088 18.0325 77.1088 18.8869C77.111 19.3492 77.0035 19.8069 76.7909 20.2603Z" fill="#0052CC"/>
<path d="M77.6227 13.9604C77.9295 13.2082 78.3648 12.5582 78.9275 12.0104C79.4902 11.4626 80.1681 11.0349 80.9612 10.7271C81.7544 10.4193 82.6283 10.2649 83.5832 10.2649C84.538 10.2649 85.4075 10.4193 86.1929 10.7271C86.9771 11.0349 87.6506 11.4626 88.2133 12.0104C88.776 12.5582 89.2113 13.2082 89.5182 13.9604C89.825 14.7126 89.979 15.5337 89.979 16.4237C89.979 17.3137 89.825 18.1382 89.5182 18.8993C89.2113 19.6604 88.776 20.3149 88.2133 20.8626C87.6506 21.4104 86.9771 21.8415 86.1929 22.1582C85.4086 22.4749 84.5391 22.6326 83.5832 22.6326C82.6283 22.6326 81.7544 22.4749 80.9612 22.1582C80.1681 21.8415 79.4902 21.4093 78.9275 20.8626C78.3648 20.3149 77.9295 19.6604 77.6227 18.8993C77.3158 18.1382 77.1619 17.3126 77.1619 16.4237C77.1619 15.5337 77.3147 14.7126 77.6227 13.9604ZM85.6291 18.8737C86.1231 18.2326 86.3712 17.416 86.3712 16.4237C86.3712 15.4315 86.1242 14.6237 85.6291 13.9993C85.135 13.3749 84.4527 13.0626 83.5832 13.0626C82.7136 13.0626 82.0268 13.3749 81.524 13.9993C81.0211 14.6237 80.7696 15.4315 80.7696 16.4237C80.7696 17.416 81.0211 18.2326 81.524 18.8737C82.0268 19.5149 82.7136 19.836 83.5832 19.836C84.4516 19.836 85.1339 19.5149 85.6291 18.8737Z" fill="#0052CC"/>
<path d="M92.0491 21.3115C91.0765 20.4304 90.5914 19.126 90.5914 17.3982V10.5471H94.198V17.5515C94.198 18.3215 94.373 18.8948 94.722 19.2704C95.0709 19.6459 95.5538 19.8348 96.1675 19.8348C96.7468 19.8348 97.2287 19.6593 97.613 19.3093C97.9974 18.9593 98.189 18.3726 98.189 17.5515V10.5471H101.796V17.3726C101.796 18.2959 101.638 19.0915 101.323 19.7593C101.007 20.426 100.594 20.9737 100.082 21.4015C99.5703 21.8293 98.9866 22.1415 98.3297 22.3382C97.6728 22.5348 97.0038 22.6337 96.3215 22.6337C94.445 22.6326 93.0216 22.1926 92.0491 21.3115Z" fill="#0052CC"/>
<path d="M109.175 13.6004C108.86 13.5315 108.583 13.4982 108.343 13.4982C107.559 13.4982 106.992 13.7715 106.642 14.3193C106.292 14.8671 106.118 15.5771 106.118 16.4493V22.3504H102.511V10.5471H105.888L105.964 12.0093H106.015C106.493 11.4104 107 10.9704 107.537 10.6882C108.074 10.406 108.616 10.2649 109.161 10.2649C109.468 10.2649 109.754 10.2993 110.018 10.3671C110.283 10.436 110.534 10.5293 110.773 10.6493L110.108 13.8826C109.802 13.7638 109.491 13.6693 109.175 13.6004Z" fill="#0052CC"/>
<path d="M114.023 17.9119C114.177 18.3397 114.376 18.6941 114.624 18.9763C114.871 19.2586 115.161 19.4719 115.494 19.6174C115.826 19.763 116.172 19.8352 116.529 19.8352C117.109 19.8352 117.583 19.7108 117.949 19.463C118.316 19.2152 118.696 18.783 119.088 18.1674L121.595 19.6297C121.016 20.6052 120.278 21.3486 119.382 21.8619C118.487 22.3752 117.493 22.6319 116.402 22.6319C115.583 22.6319 114.799 22.4863 114.048 22.1952C113.298 21.9041 112.637 21.4897 112.065 20.9508C111.494 20.4119 111.037 19.7619 110.697 19.0008C110.356 18.2397 110.186 17.3797 110.186 16.4219C110.186 15.4641 110.356 14.6041 110.697 13.843C111.039 13.0819 111.495 12.4363 112.065 11.9052C112.637 11.3752 113.297 10.9686 114.048 10.6863C114.798 10.4041 115.583 10.263 116.402 10.263C117.493 10.263 118.487 10.5197 119.382 11.033C120.277 11.5463 121.014 12.2908 121.595 13.2652L119.088 14.7274C118.867 14.3508 118.555 13.9786 118.154 13.6108C117.753 13.243 117.212 13.0597 116.53 13.0597C115.712 13.0597 115.051 13.3719 114.548 13.9963C114.045 14.6208 113.793 15.4286 113.793 16.4208C113.792 16.9886 113.869 17.4841 114.023 17.9119Z" fill="#0052CC"/>
<path d="M129.307 19.7204C129.793 19.4726 130.241 19.0237 130.649 18.3737L133.105 19.5793C132.593 20.5882 131.839 21.3493 130.841 21.8626C129.843 22.376 128.765 22.6326 127.606 22.6326C126.753 22.6326 125.947 22.4915 125.189 22.2093C124.43 21.9271 123.764 21.5171 123.194 20.9782C122.623 20.4393 122.17 19.7893 121.838 19.0282C121.505 18.2671 121.339 17.3993 121.339 16.4237C121.339 15.5682 121.493 14.7649 121.8 14.0115C122.107 13.2593 122.533 12.6049 123.079 12.0482C123.626 11.4926 124.286 11.056 125.062 10.7393C125.838 10.4226 126.686 10.2649 127.608 10.2649C128.546 10.2649 129.394 10.4271 130.153 10.7526C130.912 11.0771 131.56 11.5271 132.097 12.0993C132.634 12.6726 133.043 13.3604 133.325 14.1649C133.606 14.9693 133.747 15.8582 133.747 16.8338V17.296H124.947C125.016 18.1171 125.318 18.7882 125.855 19.3104C126.393 19.8326 127.036 20.0926 127.787 20.0926C128.313 20.0926 128.822 19.9682 129.307 19.7204ZM125.841 13.4982C125.38 13.9082 125.091 14.4737 124.971 15.1915H130.113C129.977 14.3704 129.67 13.7804 129.193 13.4215C128.715 13.0626 128.178 12.8826 127.581 12.8826C126.881 12.8826 126.302 13.0882 125.841 13.4982Z" fill="#0052CC"/>
<path d="M67.1101 16.8313C67.1101 15.8568 66.9694 14.9679 66.6881 14.1635C66.4067 13.3601 65.998 12.6713 65.4607 12.099C64.9235 11.5257 64.2766 11.0779 63.5178 10.7524C62.7591 10.4279 61.9117 10.2646 60.9735 10.2646C60.053 10.2646 59.2045 10.4224 58.4291 10.739C57.7601 11.0124 57.1774 11.3746 56.6789 11.8257L55.9301 15.4679L54.8524 15.0479C54.7582 15.4901 54.7095 15.9468 54.7095 16.4201C54.7095 17.3946 54.8756 18.2624 55.2079 19.0235C55.5402 19.7846 55.9922 20.4346 56.5626 20.9724C57.1342 21.5113 57.7988 21.9213 58.5565 22.2035C59.3153 22.4857 60.1205 22.6268 60.9724 22.6268C62.131 22.6268 63.2099 22.3701 64.2068 21.8579C65.2037 21.3446 65.9581 20.5846 66.4698 19.5757L64.0152 18.3701C63.6065 19.0201 63.1589 19.469 62.6727 19.7168C62.1864 19.9646 61.6802 20.089 61.1518 20.089C60.4019 20.089 59.7583 19.8279 59.2211 19.3068C58.6839 18.7857 58.3815 18.1146 58.3139 17.2935H67.109V16.8313H67.1101ZM58.3405 15.1901C58.4601 14.4724 58.7492 13.9079 59.21 13.4979C59.6697 13.0879 60.2501 12.8824 60.9491 12.8824C61.5461 12.8824 62.0823 13.0624 62.5597 13.4213C63.0371 13.7801 63.3439 14.3701 63.4802 15.1912H58.3405V15.1901Z" fill="#0052CC"/>
<path d="M54.6795 13.6002C54.3638 13.5313 54.0869 13.498 53.8487 13.498C53.0645 13.498 52.4973 13.7713 52.1484 14.3191C51.7995 14.8657 51.6245 15.5757 51.6245 16.448V22.3469H48.0189V10.548H51.3941L51.4705 12.0102H51.5214C51.9989 11.4113 52.5062 10.9713 53.0434 10.6891C53.5806 10.4069 54.1212 10.2657 54.6673 10.2657C54.9741 10.2657 55.2599 10.3002 55.5235 10.368C55.7872 10.4369 56.0386 10.5302 56.2779 10.6502L55.6133 13.8813C55.3053 13.7624 54.9941 13.6691 54.6795 13.6002Z" fill="#0052CC"/>
<rect x="208" y="4" width="1" height="24" fill="#C1C7D0"/>
<path d="M234.312 12.112H230.52V22H228.952V12.112H225.16V10.656H234.312V12.112ZM248.165 22H246.613V13.168L242.741 22H241.301L237.461 13.168V22H235.909V10.656H238.037L242.037 19.888L246.069 10.656H248.165V22ZM256.617 20.608H258.937C260.047 20.608 260.964 20.24 261.689 19.504C262.425 18.768 262.793 17.7173 262.793 16.352C262.793 14.976 262.431 13.9147 261.705 13.168C260.991 12.4213 260.079 12.048 258.969 12.048H256.617V20.608ZM258.985 22H255.049V10.656H259.017C260.543 10.656 261.823 11.1627 262.857 12.176C263.892 13.1787 264.409 14.5707 264.409 16.352C264.409 18.1227 263.887 19.5093 262.841 20.512C261.796 21.504 260.511 22 258.985 22ZM265.925 19.936C265.925 19.2747 266.138 18.7467 266.565 18.352C266.992 17.9467 267.557 17.696 268.261 17.6L270.341 17.296C270.736 17.2427 270.933 17.0507 270.933 16.72C270.933 16.3147 270.794 15.984 270.517 15.728C270.24 15.472 269.824 15.344 269.269 15.344C268.757 15.344 268.352 15.488 268.053 15.776C267.754 16.0533 267.578 16.4267 267.525 16.896L266.085 16.56C266.16 15.824 266.496 15.2267 267.093 14.768C267.69 14.2987 268.405 14.064 269.237 14.064C270.325 14.064 271.13 14.3307 271.653 14.864C272.176 15.3867 272.437 16.0587 272.437 16.88V20.736C272.437 21.1947 272.469 21.616 272.533 22H271.061C271.008 21.68 270.981 21.3333 270.981 20.96C270.768 21.3013 270.453 21.6 270.037 21.856C269.632 22.112 269.12 22.24 268.501 22.24C267.744 22.24 267.125 22.016 266.645 21.568C266.165 21.1093 265.925 20.5653 265.925 19.936ZM268.709 20.976C269.381 20.976 269.92 20.7947 270.325 20.432C270.73 20.0693 270.933 19.4933 270.933 18.704V18.352L268.581 18.704C268.24 18.7573 267.968 18.88 267.765 19.072C267.562 19.264 267.461 19.5253 267.461 19.856C267.461 20.1547 267.573 20.416 267.797 20.64C268.032 20.864 268.336 20.976 268.709 20.976ZM274.06 20L275.42 19.52C275.473 19.936 275.655 20.2827 275.964 20.56C276.273 20.8267 276.689 20.96 277.212 20.96C277.617 20.96 277.937 20.864 278.172 20.672C278.407 20.4693 278.524 20.224 278.524 19.936C278.524 19.424 278.193 19.0933 277.532 18.944L276.22 18.656C275.623 18.528 275.153 18.272 274.812 17.888C274.471 17.504 274.3 17.04 274.3 16.496C274.3 15.8347 274.567 15.264 275.1 14.784C275.644 14.304 276.289 14.064 277.036 14.064C277.527 14.064 277.964 14.1387 278.348 14.288C278.732 14.4267 279.031 14.6133 279.244 14.848C279.457 15.0827 279.617 15.3013 279.724 15.504C279.831 15.7067 279.911 15.9147 279.964 16.128L278.636 16.624C278.615 16.496 278.577 16.3733 278.524 16.256C278.471 16.128 278.385 15.9893 278.268 15.84C278.161 15.6907 278.001 15.5733 277.788 15.488C277.575 15.392 277.324 15.344 277.036 15.344C276.663 15.344 276.353 15.4453 276.108 15.648C275.873 15.8507 275.756 16.0907 275.756 16.368C275.756 16.8587 276.049 17.168 276.636 17.296L277.884 17.568C278.567 17.7173 279.089 17.9947 279.452 18.4C279.825 18.7947 280.012 19.28 280.012 19.856C280.012 20.464 279.761 21.0133 279.26 21.504C278.769 21.9947 278.081 22.24 277.196 22.24C276.247 22.24 275.505 22.0053 274.972 21.536C274.439 21.056 274.135 20.544 274.06 20ZM283.518 17.472V22H282.014V10.416H283.518V15.2C284.03 14.4533 284.809 14.08 285.854 14.08C286.74 14.08 287.417 14.3627 287.886 14.928C288.366 15.4933 288.606 16.224 288.606 17.12V22H287.102V17.376C287.102 16.0853 286.505 15.44 285.31 15.44C284.756 15.44 284.324 15.632 284.014 16.016C283.705 16.3893 283.54 16.8747 283.518 17.472ZM292.487 22H290.999V10.416H292.487V15.392C292.689 15.0187 293.009 14.7093 293.447 14.464C293.895 14.208 294.423 14.08 295.031 14.08C296.151 14.08 297.02 14.4587 297.639 15.216C298.257 15.9733 298.567 16.9387 298.567 18.112C298.567 19.296 298.247 20.2773 297.607 21.056C296.967 21.824 296.092 22.208 294.983 22.208C293.831 22.208 292.999 21.7653 292.487 20.88V22ZM296.407 20.112C296.823 19.6107 297.031 18.944 297.031 18.112C297.031 17.28 296.823 16.624 296.407 16.144C296.001 15.6533 295.452 15.408 294.759 15.408C294.087 15.408 293.537 15.6533 293.111 16.144C292.684 16.6347 292.471 17.2907 292.471 18.112C292.471 18.9333 292.684 19.6 293.111 20.112C293.537 20.6133 294.087 20.864 294.759 20.864C295.441 20.864 295.991 20.6133 296.407 20.112ZM302.067 20.176C302.536 20.656 303.107 20.896 303.779 20.896C304.451 20.896 305.016 20.656 305.475 20.176C305.944 19.6853 306.179 19.008 306.179 18.144C306.179 17.2907 305.944 16.624 305.475 16.144C305.016 15.6533 304.451 15.408 303.779 15.408C303.107 15.408 302.536 15.6533 302.067 16.144C301.608 16.624 301.379 17.2907 301.379 18.144C301.379 19.008 301.608 19.6853 302.067 20.176ZM300.947 15.232C301.694 14.4533 302.638 14.064 303.779 14.064C304.92 14.064 305.859 14.4533 306.595 15.232C307.342 16 307.715 16.9707 307.715 18.144C307.715 19.328 307.347 20.3093 306.611 21.088C305.875 21.856 304.931 22.24 303.779 22.24C302.627 22.24 301.683 21.856 300.947 21.088C300.211 20.3093 299.843 19.328 299.843 18.144C299.843 16.9707 300.211 16 300.947 15.232ZM309.159 19.936C309.159 19.2747 309.373 18.7467 309.799 18.352C310.226 17.9467 310.791 17.696 311.495 17.6L313.575 17.296C313.97 17.2427 314.167 17.0507 314.167 16.72C314.167 16.3147 314.029 15.984 313.751 15.728C313.474 15.472 313.058 15.344 312.503 15.344C311.991 15.344 311.586 15.488 311.287 15.776C310.989 16.0533 310.813 16.4267 310.759 16.896L309.319 16.56C309.394 15.824 309.73 15.2267 310.327 14.768C310.925 14.2987 311.639 14.064 312.471 14.064C313.559 14.064 314.365 14.3307 314.887 14.864C315.41 15.3867 315.671 16.0587 315.671 16.88V20.736C315.671 21.1947 315.703 21.616 315.767 22H314.295C314.242 21.68 314.215 21.3333 314.215 20.96C314.002 21.3013 313.687 21.6 313.271 21.856C312.866 22.112 312.354 22.24 311.735 22.24C310.978 22.24 310.359 22.016 309.879 21.568C309.399 21.1093 309.159 20.5653 309.159 19.936ZM311.943 20.976C312.615 20.976 313.154 20.7947 313.559 20.432C313.965 20.0693 314.167 19.4933 314.167 18.704V18.352L311.815 18.704C311.474 18.7573 311.202 18.88 310.999 19.072C310.797 19.264 310.695 19.5253 310.695 19.856C310.695 20.1547 310.807 20.416 311.031 20.64C311.266 20.864 311.57 20.976 311.943 20.976ZM322.286 14.224V15.824C322.062 15.792 321.844 15.776 321.63 15.776C320.222 15.776 319.518 16.5653 319.518 18.144V22H318.014V14.304H319.486V15.648C319.956 14.6667 320.724 14.176 321.79 14.176C321.961 14.176 322.126 14.192 322.286 14.224ZM324.707 18.128C324.707 18.9387 324.905 19.6 325.299 20.112C325.705 20.624 326.259 20.88 326.963 20.88C327.635 20.88 328.174 20.6187 328.579 20.096C328.985 19.5733 329.187 18.9067 329.187 18.096C329.187 17.296 328.99 16.6507 328.595 16.16C328.201 15.6693 327.662 15.424 326.979 15.424C326.297 15.424 325.747 15.6747 325.331 16.176C324.915 16.6773 324.707 17.328 324.707 18.128ZM329.203 20.96V20.832C329.001 21.2267 328.691 21.5573 328.275 21.824C327.87 22.08 327.385 22.208 326.819 22.208C325.721 22.208 324.835 21.824 324.163 21.056C323.502 20.2773 323.171 19.3013 323.171 18.128C323.171 17.008 323.513 16.0587 324.195 15.28C324.878 14.4907 325.753 14.096 326.819 14.096C327.449 14.096 327.961 14.224 328.355 14.48C328.75 14.7253 329.022 15.0293 329.171 15.392V10.416H330.659V20.576C330.659 21.0987 330.686 21.5733 330.739 22H329.283C329.23 21.7013 329.203 21.3547 329.203 20.96Z" fill="#091E42"/>
</svg>
